# xmcd CD database file
#
# Track frame offsets:
#	150
#	24620
#	51592
#	77947
#	103635
#	125822
#	147937
#	171192
#	187927
#	208667
#	237017
#	258682
#
# Disc length: 3807 seconds
#
# Revision: 2
# Processed by: cddbd v1.4b41PL1 Copyright (c) Steve Scherf et al.
# Submitted via: Feurio! 1.60 - http://www.feurio.com
#
DISCID=ae0edd0c,b10edd0c
DTITLE=Julio Silva Band - XIPALA-PALA
DYEAR=1900
DGENRE=
TTITLE0=MABARRACA
TTITLE1=A MABAILENE
TTITLE2=AKU THLELA NI KU BONA
TTITLE3=RITA
TTITLE4=WA MABOLA
TTITLE5=HIKINA ZUKUTA
TTITLE6=NA KURANDA WENE
TTITLE7=XIPALA-PALA
TTITLE8=NI KOMBELA UPUTSO
TTITLE9=VER A MALTA DANCAR
TTITLE10=INDYOMBO NINE MALI
TTITLE11=SIHONO MUNI LESO
EXTD=
EXTT0=
EXTT1=
EXTT2=
EXTT3=
EXTT4=
EXTT5=
EXTT6=
EXTT7=
EXTT8=
EXTT9=
EXTT10=
EXTT11=
PLAYORDER=
